<svg width="22" height="22" viewBox="0 0 22 22" fill="none" xmlns="http://www.w3.org/2000/svg">
<rect width="22" height="22" rx="11" fill="white"/>
<path fill-rule="evenodd" clip-rule="evenodd" d="M11 3C11.2652 3 11.5196 3.10536 11.7071 3.29289C11.8946 3.48043 12 3.73478 12 4V5C12 5.26522 11.8946 5.51957 11.7071 5.70711C11.5196 5.89464 11.2652 6 11 6C10.7348 6 10.4804 5.89464 10.2929 5.70711C10.1054 5.51957 10 5.26522 10 5V4C10 3.73478 10.1054 3.48043 10.2929 3.29289C10.4804 3.10536 10.7348 3 11 3ZM15 11C15 12.0609 14.5786 13.0783 13.8284 13.8284C13.0783 14.5786 12.0609 15 11 15C9.93913 15 8.92172 14.5786 8.17157 13.8284C7.42143 13.0783 7 12.0609 7 11C7 9.93913 7.42143 8.92172 8.17157 8.17157C8.92172 7.42143 9.93913 7 11 7C12.0609 7 13.0783 7.42143 13.8284 8.17157C14.5786 8.92172 15 9.93913 15 11ZM14.536 15.95L15.243 16.657C15.4316 16.8392 15.6842 16.94 15.9464 16.9377C16.2086 16.9354 16.4594 16.8302 16.6448 16.6448C16.8302 16.4594 16.9354 16.2086 16.9377 15.9464C16.94 15.6842 16.8392 15.4316 16.657 15.243L15.95 14.536C15.7614 14.3538 15.5088 14.253 15.2466 14.2553C14.9844 14.2576 14.7336 14.3628 14.5482 14.5482C14.3628 14.7336 14.2576 14.9844 14.2553 15.2466C14.253 15.5088 14.3538 15.7614 14.536 15.95ZM16.656 5.343C16.8435 5.53053 16.9488 5.78484 16.9488 6.05C16.9488 6.31516 16.8435 6.56947 16.656 6.757L15.95 7.464C15.8578 7.55951 15.7474 7.63569 15.6254 7.6881C15.5034 7.74051 15.3722 7.7681 15.2394 7.76925C15.1066 7.7704 14.9749 7.7451 14.852 7.69482C14.7291 7.64454 14.6175 7.57029 14.5236 7.4764C14.4297 7.3825 14.3555 7.27085 14.3052 7.14795C14.2549 7.02506 14.2296 6.89338 14.2307 6.7606C14.2319 6.62782 14.2595 6.4966 14.3119 6.3746C14.3643 6.25259 14.4405 6.14225 14.536 6.05L15.243 5.343C15.4305 5.15553 15.6848 5.05021 15.95 5.05021C16.2152 5.05021 16.4685 5.15553 16.656 5.343ZM18 12C18.2652 12 18.5196 11.8946 18.7071 11.7071C18.8946 11.5196 19 11.2652 19 11C19 10.7348 18.8946 10.4804 18.7071 10.2929C18.5196 10.1054 18.2652 10 18 10H17C16.7348 10 16.4804 10.1054 16.2929 10.2929C16.1054 10.4804 16 10.7348 16 11C16 11.2652 16.1054 11.5196 16.2929 11.7071C16.4804 11.8946 16.7348 12 17 12H18ZM11 16C11.2652 16 11.5196 16.1054 11.7071 16.2929C11.8946 16.4804 12 16.7348 12 17V18C12 18.2652 11.8946 18.5196 11.7071 18.7071C11.5196 18.8946 11.2652 19 11 19C10.7348 19 10.4804 18.8946 10.2929 18.7071C10.1054 18.5196 10 18.2652 10 18V17C10 16.7348 10.1054 16.4804 10.2929 16.2929C10.4804 16.1054 10.7348 16 11 16ZM6.05 7.464C6.14284 7.55691 6.25308 7.63062 6.37441 7.68093C6.49574 7.73124 6.6258 7.75716 6.75715 7.7572C6.88849 7.75725 7.01857 7.73142 7.13993 7.6812C7.2613 7.63098 7.37159 7.55734 7.4645 7.4645C7.55741 7.37166 7.63112 7.26142 7.68143 7.14009C7.73174 7.01876 7.75766 6.8887 7.7577 6.75735C7.75775 6.62601 7.73192 6.49593 7.6817 6.37457C7.63148 6.2532 7.55784 6.14291 7.465 6.05L6.757 5.343C6.5684 5.16084 6.3158 5.06005 6.0536 5.06233C5.7914 5.0646 5.54059 5.16977 5.35518 5.35518C5.16977 5.54059 5.0646 5.7914 5.06233 6.0536C5.06005 6.3158 5.16084 6.5684 5.343 6.757L6.05 7.464ZM7.464 15.95L6.757 16.657C6.5684 16.8392 6.3158 16.94 6.0536 16.9377C5.7914 16.9354 5.54059 16.8302 5.35518 16.6448C5.16977 16.4594 5.0646 16.2086 5.06233 15.9464C5.06005 15.6842 5.16084 15.4316 5.343 15.243L6.05 14.536C6.2386 14.3538 6.4912 14.253 6.7534 14.2553C7.0156 14.2576 7.26641 14.3628 7.45182 14.5482C7.63723 14.7336 7.7424 14.9844 7.74467 15.2466C7.74695 15.5088 7.64616 15.7614 7.464 15.95ZM5 12C5.26522 12 5.51957 11.8946 5.70711 11.7071C5.89464 11.5196 6 11.2652 6 11C6 10.7348 5.89464 10.4804 5.70711 10.2929C5.51957 10.1054 5.26522 10 5 10H4C3.73478 10 3.48043 10.1054 3.29289 10.2929C3.10536 10.4804 3 10.7348 3 11C3 11.2652 3.10536 11.5196 3.29289 11.7071C3.48043 11.8946 3.73478 12 4 12H5Z" fill="#0088CC"/>
</svg>
